<?xml version="1.0" encoding="UTF-8" standalone="no"?>
<svg
   xmlns="http://www.w3.org/2000/svg"
   xmlns:svg="http://www.w3.org/2000/svg"
   xmlns:oryx="http://www.b3mn.org/oryx"
   xmlns:xlink="http://www.w3.org/1999/xlink"

   width="102"
   height="82"
   version="1.0">
  <defs></defs>
  <oryx:magnets>
  	<oryx:magnet oryx:cx="1" oryx:cy="20" oryx:anchors="left" />
  	<oryx:magnet oryx:cx="1" oryx:cy="40" oryx:anchors="left" />
  	<oryx:magnet oryx:cx="1" oryx:cy="60" oryx:anchors="left" />
  	
  	<oryx:magnet oryx:cx="25" oryx:cy="79" oryx:anchors="bottom" />
  	<oryx:magnet oryx:cx="50" oryx:cy="79" oryx:anchors="bottom" />
  	<oryx:magnet oryx:cx="75" oryx:cy="79" oryx:anchors="bottom" />
  	
  	<oryx:magnet oryx:cx="99" oryx:cy="20" oryx:anchors="right" />
  	<oryx:magnet oryx:cx="99" oryx:cy="40" oryx:anchors="right" />
  	<oryx:magnet oryx:cx="99" oryx:cy="60" oryx:anchors="right" />
  	
  	<oryx:magnet oryx:cx="25" oryx:cy="1" oryx:anchors="top" />
  	<oryx:magnet oryx:cx="50" oryx:cy="1" oryx:anchors="top" />
  	<oryx:magnet oryx:cx="75" oryx:cy="1" oryx:anchors="top" />
  	
  	<oryx:magnet oryx:cx="50" oryx:cy="40" oryx:default="yes" />
  </oryx:magnets>
  <g pointer-events="fill" oryx:minimumSize="50 40">
  	<defs>
		<radialGradient id="background" cx="10%" cy="10%" r="100%" fx="10%" fy="10%">
			<stop offset="0%" stop-color="#ffffff" stop-opacity="1"/>
			<stop id="fill_el" offset="100%" stop-color="#ffffcc" stop-opacity="1"/>
		</radialGradient>
	</defs>
	
	<rect id="text_frame" oryx:anchors="bottom top right left" x="1" y="1" width="94" height="79" rx="10" ry="10" stroke="none" stroke-width="0" fill="none" />
	<rect id="bg_frame" oryx:resize="vertical horizontal" x="0" y="0" width="100" height="80" rx="10" ry="10" stroke="black" stroke-width="1" fill="url(#background) #ffffcc" />
		<text 
			font-size="12" 
			id="text_name" 
			x="50" 
			y="40" 
			oryx:align="middle center"
			oryx:fittoelem="text_frame"
			stroke="black">
		</text>
    <g id="jenkinsTask" style="display:inline">
      <path oryx:anchors="top left"
         d="m 18.763341,19.175507 -1.499309,0.224885 -2.02399,0.224886 -1.31189,0.03744 -1.274289,-0.03744 L 11.6793,19.325393 10.817225,18.388409 10.14257,16.476885 9.9926613,16.064558 9.0931204,15.764786 8.5683733,14.902689 8.1935797,13.66582 8.6059292,12.578837 9.5803567,12.24151 l 0.7870983,0.374883 0.374884,0.824542 0.44977,-0.075 0.149863,-0.18733 -0.149863,-0.862097 -0.03756,-1.086983 0.224885,-1.4991964 -0.0088,-0.8563633 0.683437,-1.0926046 1.199403,-0.8620975 2.098988,-0.8995408 2.323761,0.3373275 2.023967,1.4617542 0.937097,1.4991975 0.599655,1.0869824 0.149887,2.698622 -0.449771,2.323851 -0.824541,2.06141 -0.787098,1.086983"
         id="path28"
         style="fill:#f0d6b7;fill-opacity:1;fill-rule:evenodd;stroke:none" />
      <path oryx:anchors="top left"
         d="m 10.855232,18.649355 -0.9380936,0.377635 -2.9971028,2.059009 0.1858204,0.599421 0.3986146,1.177861 6.7314924,0 -0.194811,-0.239768 -0.449566,-1.948117 -0.374638,-0.11389 -0.824203,-0.260747 -0.71331,-0.638383 -0.824203,-1.013021 z m 4.384761,4.088048 -0.36265,0.125878 0.296714,0 0.06594,-0.125878 z"
         id="path30"
         style="fill:#335061;fill-opacity:1;fill-rule:evenodd;stroke:none" />
      <path oryx:anchors="top left"
         d="m 8.6059292,12.578837 0.9744275,-0.337327 0.7870983,0.374883 0.374884,0.824542 0.44977,-0.075 0.112443,-0.449771 L 11.079666,12.05418 11.304552,9.9926576 11.117087,8.8682322 11.791743,8.0811331 13.253497,6.9192642 12.841192,6.3570509 10.779759,7.3690346 9.9176846,8.0436897 9.4304483,9.0931168 8.680816,10.105101 8.4559308,11.304525 8.6059292,12.578837"
         id="path32"
         style="fill:#6d6b6d;fill-opacity:1;fill-rule:evenodd;stroke:none" />
      <path oryx:anchors="top left"
         d="m 10.14257,9.0556734 c 0,0 0.562213,-1.3867546 2.811065,-2.0614097 2.248852,-0.6746562 0.112442,-0.4873265 0.112442,-0.4873265 l -2.436181,0.9370969 -0.9370967,0.9369843 -0.4122145,0.7496545 0.8619852,-0.075"
         id="path34"
         style="fill:#dcd9d8;fill-opacity:1;fill-rule:evenodd;stroke:none" />
      <path oryx:anchors="top left"
         d="m 9.0181437,12.316509 c 0,0 -0.7870981,-2.6237355 2.2113863,-2.9985064 L 11.117087,8.8682322 9.0556996,9.3555575 8.4559308,11.304525 8.6059292,12.578837 9.0181437,12.316509"
         id="path36"
         style="fill:#dcd9d8;fill-opacity:1;fill-rule:evenodd;stroke:none" />
      <path oryx:anchors="top left"
         d="m 10.217546,15.802229 0.490756,-0.475519 c 0,0 0.221501,0.02575 0.258922,0.288078 0.03742,0.262441 0.149863,2.623735 1.761525,3.898159 0.147008,0.116266 -1.199312,-0.187554 -1.199312,-0.187554 l -1.199448,-1.873968"
         id="path38"
         style="fill:#f7e4cd;fill-opacity:1;fill-rule:evenodd;stroke:none" />
      <path oryx:anchors="top left"
         d="m 17.114258,15.09013 c 0,0 0.08737,-1.13612 0.393324,-1.048752 0.305957,0.08737 0.305957,0.393324 0.305957,0.393324 0,0 -0.743021,0.480693 -0.699281,0.655428"
         id="path40"
         style="fill:#f7e4cd;fill-opacity:1;fill-rule:evenodd;stroke:none" />
      <path oryx:anchors="top left"
         d="m 20.224983,10.929754 c 0,0 -0.617761,0.130434 -0.674656,0.674656 -0.0569,0.544335 0.674656,0.112442 0.787099,0.075"
         id="path42"
         style="fill:#f7e4cd;fill-opacity:1;fill-rule:nonzero;stroke:none" />
      <path oryx:anchors="top left"
         d="m 15.689813,10.96731 c 0,0 -0.824654,0.112443 -0.824654,0.6371 0,0.524769 0.937119,0.487326 1.199447,0.262441"
         id="path44"
         style="fill:#f7e4cd;fill-opacity:1;fill-rule:nonzero;stroke:none" />
      <path oryx:anchors="top left"
         d="m 10.59234,13.403491 c 0,0 -1.4243327,-0.862097 -1.5741963,-0.03744 -0.1499085,0.824542 -0.4873261,1.42431 0.2248852,2.286295 L 8.7557927,15.502457 8.3060223,14.340588 8.1561587,13.216162 l 0.861985,-0.899653 0.9745176,0.075 0.5622127,0.449771 0.03747,0.562212"
         id="path46"
         style="fill:#f7e4cd;fill-opacity:1;fill-rule:evenodd;stroke:none" />
      <path oryx:anchors="top left"
         d="m 11.266996,11.042197 c 0,0 0.637189,-3.2982787 3.860604,-3.9354904 2.65378,-0.5245457 4.047843,0.1124417 4.572613,0.7120985 0,0 -2.361295,-2.8109527 -4.610169,-1.948968 -2.248852,0.8620974 -3.897935,2.4362945 -3.860514,3.4481655 0.06382,1.7235194 0.03747,1.7241944 0.03747,1.7241944"
         id="path48"
         style="fill:#f7e4cd;fill-opacity:1;fill-rule:evenodd;stroke:none" />
      <path oryx:anchors="top left"
         d="m 19.962654,8.193576 c 0,0 -1.08687,-0.037443 -1.124426,0.9370969 0,0 -1.13e-4,0.1498863 0.07489,0.2997714 0,0 0.86221,-0.9745391 1.386867,-0.4497704"
         id="path50"
         style="fill:#f7e4cd;fill-opacity:1;fill-rule:evenodd;stroke:none" />
      <path oryx:anchors="top left"
         d="m 15.20315,9.5319802 c 0,0 -0.187116,-1.4958241 -1.462417,-0.6261931 -0.824564,0.5622133 -0.749543,1.3493109 -0.599679,1.4991979 0.149908,0.149999 0.109148,0.451906 0.223266,0.244675 0.114062,-0.207232 0.07651,-0.881887 0.488855,-1.0692167 0.412305,-0.1874424 1.088186,-0.3968104 1.349975,-0.048463"
         id="path52"
         style="fill:#f7e4cd;fill-opacity:1;fill-rule:evenodd;stroke:none" />
      <path oryx:anchors="top left"
         d="m 10.591486,18.61339 -3.6714504,2.472609 0.4106031,1.162876 0.1438609,0.614406 1.0429918,0 C 8.3246444,21.910724 8.1548419,21.235855 8.1548419,21.235855 L 11.679435,19.662376 10.591486,18.61339 z"
         id="path54"
         style="fill:#49728b;fill-opacity:1;fill-rule:evenodd;stroke:none" />
      <path oryx:anchors="top left"
         d="m 19.888499,18.088897 -0.899131,0.899131 0,3.48563 -0.09591,0.389623 2.361717,0 c 0.198514,-0.858392 0.656366,-2.712378 0.656366,-2.712378 l -1.687369,-1.762296 -0.335676,-0.29971 z"
         id="path62"
         style="fill:#335061;fill-opacity:1;fill-rule:evenodd;stroke:none" />
      <path oryx:anchors="top left"
         d="m 19.175556,18.875735 2.623623,1.948968 0.075,-0.899541 -1.986523,-1.836525 -0.712099,0.787098"
         id="path66"
         style="fill:#49728b;fill-opacity:1;fill-rule:evenodd;stroke:none" />
      <path oryx:anchors="top left"
         d="m 17.227072,21.460637 -0.863166,0.11389 0.545473,1.288754 0.488528,0 c -0.10106,-0.237268 -0.170835,-0.424336 -0.170835,-0.500516 0,0 0.187125,-0.451115 0.449565,-0.338672 0.262441,0.112442 0.824204,0.4136 0.824204,0.4136 l 0,-0.713311 -1.273769,-0.263745 z"
         id="path78"
         style="fill:#dcd9d8;fill-opacity:1;fill-rule:evenodd;stroke:none" />
      <path oryx:anchors="top left"
         d="m 13.692203,19.73817 -1.03834,-0.112892 -0.974563,-0.299885 0,0.337328 0.476172,0.525107 1.49922,0.674656"
         id="path80"
         style="fill:#ffffff;fill-opacity:1;fill-rule:nonzero;stroke:none" />
      <path oryx:anchors="top left"
         d="m 12.016763,19.8505 c 0,0 1.161982,0.487326 1.536775,0.374884 l 0.03729,0.44932 -1.049269,-0.224435 -0.637235,-0.44977 0.112443,-0.149999"
         id="path82"
         style="fill:#dcd9d8;fill-opacity:1;fill-rule:evenodd;stroke:none" />
      <path oryx:anchors="top left"
         d="m 19.610146,21.664761 c -0.635975,-0.01866 -1.210557,-0.09423 -1.713624,-0.236129 0.03418,-0.20622 -0.0298,-0.408616 0.02159,-0.557153 0.140216,-0.100973 0.375221,-0.0994 0.587176,-0.123125 -0.183282,-0.09007 -0.440776,-0.125711 -0.65228,-0.07365 -0.005,-0.143139 -0.06915,-0.231856 -0.108057,-0.343849 0.357567,-0.127622 1.201674,-0.964308 1.676519,-0.687249 0.226234,0.131783 0.322373,0.884473 0.339913,1.250474 0.01462,0.303595 -0.02755,0.609889 -0.151235,0.770681"
         id="path84"
         style="fill:#d33833;fill-opacity:1;fill-rule:evenodd;stroke:none" />
      <path oryx:anchors="top left"
         d="m 19.666714,21.787322 -0.05994,-0.0037 c -0.643343,-0.01888 -1.226746,-0.09441 -1.742066,-0.239768 l -0.104899,-0.02997 0.01873,-0.104899 c 0.01408,-0.08496 0.0091,-0.177077 0.0037,-0.273485 -0.0054,-0.09641 -0.01374,-0.198761 0.02248,-0.303457 l 0.0075,-0.02248 -0.07493,0.01873 -0.0037,-0.149855 c -0.0038,-0.109067 -0.05527,-0.175131 -0.101152,-0.307204 l -0.04121,-0.112391 0.112391,-0.04121 c 0.0644,-0.02298 0.186811,-0.09624 0.322189,-0.187319 0.135378,-0.09108 0.287301,-0.197861 0.449565,-0.295964 0.162265,-0.0981 0.332307,-0.185818 0.502015,-0.232275 0.169708,-0.04646 0.35101,-0.05283 0.505761,0.03746 0.09626,0.05607 0.148822,0.14866 0.194812,0.254754 0.04599,0.106094 0.08034,0.229622 0.108645,0.359653 0.05661,0.260061 0.08458,0.544754 0.09366,0.73429 0.01534,0.318525 -0.01556,0.641754 -0.17608,0.850428 l -0.03746,0.0487 z M 19.53559,21.536314 c 0.07199,-0.131811 0.11742,-0.376841 0.104899,-0.636884 -0.0085,-0.176465 -0.03376,-0.45235 -0.08617,-0.69308 -0.0262,-0.120365 -0.06119,-0.231159 -0.09741,-0.314696 -0.03621,-0.08354 -0.08055,-0.136287 -0.0974,-0.146109 -0.08267,-0.04824 -0.185155,-0.05147 -0.318443,-0.01498 -0.133287,0.03649 -0.285512,0.113661 -0.438326,0.206051 -0.152814,0.09239 -0.307523,0.199178 -0.445819,0.292217 -0.0976,0.06566 -0.178422,0.10644 -0.262246,0.149855 0.02171,0.04795 0.03615,0.10673 0.05245,0.172334 0.21216,-0.02452 0.433012,0.0026 0.61066,0.08991 l 0.367145,0.179826 -0.404609,0.04496 c -0.201091,0.02251 -0.389329,0.04442 -0.490776,0.09366 -0.0069,0.04391 -0.0115,0.08929 -0.0075,0.161094 0.0034,0.06016 -0.0015,0.136832 -0.0037,0.209797 0.448865,0.117981 0.957144,0.184995 1.517283,0.206051 z"
         id="path86"
         style="font-size:medium;font-style:normal;font-variant:normal;font-weight:normal;font-stretch:normal;text-indent:0;text-align:start;text-decoration:none;line-height:normal;letter-spacing:normal;word-spacing:normal;text-transform:none;direction:ltr;block-progression:tb;writing-mode:lr-tb;text-anchor:start;baseline-shift:baseline;color:#000000;fill:#d33833;fill-opacity:1;stroke:none;stroke-width:2;marker:none;visibility:visible;display:inline;overflow:visible;enable-background:accumulate;font-family:Sans;-inkscape-font-specification:Sans" />
      <path oryx:anchors="top left"
         d="m 14.235963,19.752289 c -0.50926,0.0105 -0.456492,0.900029 -0.431582,1.444603 0.02086,0.45989 0.261772,0.947272 0.365646,1.252789 0.04875,0.142667 0.05786,0.292366 0.179826,0.32069 0.215575,0.05025 0.927287,-0.234158 1.129908,-0.344667 0.428542,-0.233666 0.759938,-0.605001 1.123914,-0.854174 0.0047,-0.121213 0.01015,-0.241436 0.01498,-0.362649 -0.218813,-0.10907 -0.469987,-0.186751 -0.791235,-0.200806 0.217914,-0.109632 0.538713,-0.106337 0.737287,-0.236771 0.0019,-0.04857 0.0013,-0.09873 0.003,-0.146858 -0.362516,-0.02789 -0.498347,-0.190032 -0.737288,-0.32069 -0.390996,-0.213641 -0.978541,-0.446113 -1.483566,-0.542476 -0.03912,-0.0075 -0.07694,-0.0097 -0.110892,-0.009 z"
         id="path88"
         style="fill:#d33833;fill-opacity:1;fill-rule:evenodd;stroke:none" />
      <path oryx:anchors="top left"
         d="m 14.335617,22.840054 c -0.09031,-0.02097 -0.164673,-0.08741 -0.202304,-0.153602 -0.03763,-0.06619 -0.05166,-0.13047 -0.07493,-0.198558 -0.0982,-0.28882 -0.35206,-0.787209 -0.374638,-1.285008 -0.01241,-0.271403 -0.03194,-0.635622 0.01873,-0.947833 0.02534,-0.156106 0.06667,-0.302392 0.149855,-0.419595 0.08319,-0.117203 0.219895,-0.198958 0.382131,-0.202304 l 0.295964,-0.0075 -0.05245,0.05245 c 0.495238,0.10948 1.032762,0.315367 1.408639,0.520747 0.258792,0.141514 0.359968,0.281867 0.689333,0.307203 l 0.116138,0.0075 -0.0037,0.116138 c -0.0015,0.04424 -0.0017,0.09332 -0.0037,0.146108 l -0.0037,0.06369 -0.0487,0.03372 c -0.08868,0.05825 -0.190921,0.07637 -0.288471,0.101152 0.11678,0.0349 0.22979,0.07759 0.329681,0.127377 l 0.06743,0.03372 -0.0037,0.07867 c -0.0049,0.121632 -0.01029,0.24268 -0.01499,0.363398 l 0,0.05994 -0.05245,0.03372 c -0.346153,0.236971 -0.678803,0.611134 -1.131406,0.85792 -0.120684,0.06582 -0.343344,0.152515 -0.576943,0.221037 -0.116799,0.03426 -0.234933,0.06442 -0.34092,0.08242 -0.105988,0.018 -0.196623,0.02803 -0.284725,0.0075 z m 0.05245,-0.236022 c 0.01969,0.0046 0.09889,0.0044 0.191066,-0.01124 0.09217,-0.01565 0.200543,-0.04254 0.310949,-0.07493 0.220812,-0.06477 0.450048,-0.153869 0.531986,-0.198558 0.386079,-0.210513 0.704014,-0.547402 1.063971,-0.805471 0.003,-0.07503 0.0044,-0.150176 0.0075,-0.224783 -0.189772,-0.08582 -0.398275,-0.149179 -0.670602,-0.161094 l -0.460804,-0.01873 0.412101,-0.209797 c 0.130487,-0.06565 0.274112,-0.09109 0.404609,-0.119884 0.08133,-0.01795 0.134889,-0.04378 0.198558,-0.06743 -0.269098,-0.06401 -0.422174,-0.204486 -0.603167,-0.303457 -0.378763,-0.206956 -0.962877,-0.435321 -1.449848,-0.528239 -0.02941,-0.0056 -0.05926,-0.0081 -0.08617,-0.0075 -0.09239,0.0019 -0.141696,0.0316 -0.191065,0.101152 -0.04937,0.06955 -0.08663,0.182782 -0.108645,0.318443 -0.04403,0.271321 -0.02748,0.62596 -0.01499,0.89913 0.01914,0.421981 0.250102,0.895359 0.359653,1.217573 0.02549,0.07458 0.04435,0.133664 0.05994,0.161095 0.0156,0.02743 0.0133,0.02636 0.04496,0.03372 z"
         id="path90"
         style="font-size:medium;font-style:normal;font-variant:normal;font-weight:normal;font-stretch:normal;text-indent:0;text-align:start;text-decoration:none;line-height:normal;letter-spacing:normal;word-spacing:normal;text-transform:none;direction:ltr;block-progression:tb;writing-mode:lr-tb;text-anchor:start;baseline-shift:baseline;color:#000000;fill:#d33833;fill-opacity:1;stroke:none;stroke-width:2;marker:none;visibility:visible;display:inline;overflow:visible;enable-background:accumulate;font-family:Sans;-inkscape-font-specification:Sans" />
      <path oryx:anchors="top left"
         d="m 16.930414,21.318213 c -0.05555,-0.316413 -0.119751,-0.406704 -0.0949,-0.682751 0.843882,-0.562663 1.002313,0.966444 0.0949,0.682751"
         id="path92"
         style="fill:#d33833;fill-opacity:1;fill-rule:evenodd;stroke:none" />
      <path oryx:anchors="top left"
         d="m 17.242807,21.461387 c -0.102716,0.01756 -0.220824,0.0099 -0.348413,-0.02997 l -0.07118,-0.01873 -0.01124,-0.07493 c -0.02675,-0.152372 -0.0536,-0.248526 -0.07493,-0.352159 -0.02133,-0.103634 -0.03583,-0.211284 -0.02248,-0.359653 l 0.0075,-0.05994 0.0487,-0.02997 c 0.233264,-0.15553 0.453739,-0.179783 0.618153,-0.09741 0.164413,0.08238 0.250287,0.24976 0.269739,0.419595 0.01945,0.169835 -0.02418,0.35292 -0.157348,0.479536 -0.06658,0.06331 -0.155784,0.106069 -0.2585,0.123631 z m -0.04121,-0.228529 c 0.05901,-0.0096 0.09814,-0.03608 0.131123,-0.06743 0.06597,-0.06272 0.09838,-0.174331 0.08617,-0.280979 -0.01222,-0.106647 -0.06434,-0.195059 -0.138616,-0.232275 -0.06541,-0.03277 -0.171066,-0.02453 -0.322189,0.05994 -0.0022,0.08199 -0.003,0.155843 0.01124,0.224783 0.01403,0.06816 0.03788,0.167982 0.05994,0.273485 0.06356,0.01333 0.12923,0.02946 0.172334,0.02248 z"
         id="path94"
         style="font-size:medium;font-style:normal;font-variant:normal;font-weight:normal;font-stretch:normal;text-indent:0;text-align:start;text-decoration:none;line-height:normal;letter-spacing:normal;word-spacing:normal;text-transform:none;direction:ltr;block-progression:tb;writing-mode:lr-tb;text-anchor:start;baseline-shift:baseline;color:#000000;fill:#d33833;fill-opacity:1;stroke:none;stroke-width:2;marker:none;visibility:visible;display:inline;overflow:visible;enable-background:accumulate;font-family:Sans;-inkscape-font-specification:Sans" />
      <path oryx:anchors="top left"
         d="m 18.152328,21.574695 c 0,0 -0.262441,-0.374884 -0.075,-0.487326 0.187443,-0.112443 0.374884,1.12e-4 0.487327,-0.18733 0.112443,-0.187441 0,-0.299884 0.03744,-0.524769 0.03744,-0.224885 0.224998,-0.262441 0.412327,-0.299885 0.18733,-0.03744 0.712211,-0.112442 0.787098,0.075 l -0.224884,-0.674656 -0.449771,-0.149886 -1.42431,0.824542 -0.075,0.412327 0,0.824541"
         id="path96"
         style="fill:#ef3d3a;fill-opacity:1;fill-rule:evenodd;stroke:none" />
      <path oryx:anchors="top left"
         d="m 14.406798,19.551483 c -0.185653,-0.0038 -0.355414,0.02649 -0.479536,0.110893 -0.880606,0.598883 -0.170797,1.984281 0.260748,2.799294 -0.03696,-0.467894 -0.07446,-0.934987 -0.116887,-1.402644 -0.07933,-0.872555 0.20871,-0.722302 0.965067,-0.722302 0.115523,0 0.712654,0.137639 0.75527,0.224782 0.20442,0.4175 -0.343507,0.326541 0.233774,0.64138 0.487326,0.265702 1.350771,-0.161612 1.153884,-0.752272 -0.110193,-0.131333 -0.573982,-0.04263 -0.740284,-0.128876 -0.2928,-0.151797 -0.588314,-0.300765 -0.881148,-0.452562 -0.256125,-0.132886 -0.742451,-0.30924 -1.150888,-0.317693 z m -0.218788,2.913184 c 0.0091,0.115775 0.02106,0.231834 0.02997,0.347664 l 0.131872,-0.04196 c -0.04453,-0.08857 -0.100749,-0.190336 -0.161843,-0.305704 z"
         id="path98"
         style="fill:#ef3d3a;fill-opacity:1;fill-rule:evenodd;stroke:none" />
      <path oryx:anchors="top left"
         d="m 15.20315,9.5319802 c -1.021563,-0.237928 -1.529174,0.4275067 -1.83883,1.1176798 -0.276496,-0.06702 -0.166471,-0.443024 -0.09663,-0.634626 0.182854,-0.5028431 0.919746,-1.1722148 1.521843,-1.0814734 0.259101,0.039017 0.609731,0.2759349 0.41362,0.5984196"
         id="path100"
         style="fill:#231f20;fill-opacity:1;fill-rule:evenodd;stroke:none" />
      <path oryx:anchors="top left"
         d="m 20.180568,10.695312 c 0.01608,7.19e-4 0.03238,0.0012 0.04846,0.0019 0.230845,0.479568 0.430656,0.987584 0.721882,1.41093 -0.195088,0.454381 -1.477271,0.856475 -1.457481,0.04059 0.277283,-0.121213 0.755952,-0.02474 1.001751,-0.179571 -0.142127,-0.390063 -0.347222,-0.722106 -0.314614,-1.273862"
         id="path102"
         style="fill:#231f20;fill-opacity:1;fill-rule:evenodd;stroke:none" />
      <path oryx:anchors="top left"
         d="m 15.726154,10.707793 c 0.219038,0.401532 0.290327,0.823417 0.601681,1.126899 0.140215,0.136618 0.412889,0.303146 0.277733,0.683089 -0.0316,0.08962 -0.262441,0.289427 -0.395686,0.32867 -0.486764,0.143702 -1.620995,0.02969 -1.236891,-0.577168 0.402556,0.01878 0.943641,0.261429 1.244537,-0.03081 -0.231069,-0.369374 -0.643014,-1.100139 -0.491374,-1.530681"
         id="path104"
         style="fill:#231f20;fill-opacity:1;fill-rule:evenodd;stroke:none" />
      <path oryx:anchors="top left"
         d="m 19.997848,14.788784 c -0.732901,0.470797 -1.550133,0.982749 -2.75102,0.864009 -0.256594,-0.223086 -0.354419,-0.71952 -0.105134,-1.047403 0.129759,0.223086 0.04824,0.63339 0.409853,0.695121 0.681403,0.116603 1.47446,-0.416825 1.964597,-0.603255 0.303933,-0.512401 -0.0262,-0.700855 -0.299997,-1.030649 -0.560526,-0.675667 -1.31243,-1.51314 -1.285106,-2.524674 0.226571,-0.164278 0.246137,0.250748 0.278632,0.326309 0.292689,0.685 1.0293,1.56104 1.566888,2.147316 0.132008,0.144377 0.349359,0.282906 0.373535,0.37837 0.06971,0.27762 -0.18137,0.610225 -0.152248,0.794856"
         id="path106"
         style="fill:#231f20;fill-opacity:1;fill-rule:evenodd;stroke:none" />
      <path oryx:anchors="top left"
         d="m 10.335836,14.293137 c -0.22972,-0.131108 -0.284401,-0.708613 -0.5540946,-0.72503 -0.3854194,-0.02339 -0.3151429,0.749205 -0.3136024,1.201 -0.265297,-0.240852 -0.3119494,-0.982411 -0.1170528,-1.363254 -0.222119,-0.10907 -0.3213046,0.120313 -0.4445079,0.20116 0.1583416,-1.150288 1.6826917,-0.533541 1.4292577,0.686124"
         id="path108"
         style="fill:#231f20;fill-opacity:1;fill-rule:evenodd;stroke:none" />
      <path oryx:anchors="top left"
         d="m 20.464485,15.26779 c -0.341151,0.649356 -0.823754,1.364491 -1.824831,1.385293 -0.02035,-0.209706 -0.03598,-0.528818 0.0011,-0.655091 0.765284,-0.07354 1.237768,-0.463039 1.823706,-0.730202"
         id="path110"
         style="fill:#231f20;fill-opacity:1;fill-rule:evenodd;stroke:none" />
      <path oryx:anchors="top left"
         d="m 15.668426,15.688775 c 0.638494,0.335753 1.811945,0.371847 2.679777,0.346435 0.04655,0.190141 0.04543,0.425033 0.04723,0.65689 -1.115543,0.05566 -2.434495,-0.220387 -2.727003,-1.003325"
         id="path112"
         style="fill:#231f20;fill-opacity:1;fill-rule:evenodd;stroke:none" />
      <path oryx:anchors="top left"
         d="m 15.547067,16.314855 c 0.441528,1.108572 1.959053,0.980949 3.238762,0.950365 -0.05633,0.143927 -0.178446,0.31394 -0.330243,0.375446 -0.410078,0.166865 -1.541138,0.293475 -2.110435,-0.0089 -0.361053,-0.191939 -0.593023,-0.62563 -0.790843,-0.879863 -0.09553,-0.122787 -0.571219,-0.43639 -0.0072,-0.437064"
         id="path114"
         style="fill:#231f20;fill-opacity:1;fill-rule:evenodd;stroke:none" />
      <path oryx:anchors="top left"
         d="m 19.109252,21.925188 c -0.122552,9.69e-4 -0.251835,0.02983 -0.386626,0.09291 -0.01063,0.264262 -0.0281,0.552468 -0.05095,0.845183 l 1.022013,0 c 0.08368,-0.144921 0.167499,-0.290272 0.251756,-0.434579 -0.165628,-0.265882 -0.468531,-0.506408 -0.836192,-0.503514 z"
         id="path116"
         style="fill:#81b0c4;fill-opacity:1;fill-rule:evenodd;stroke:none" />
      <path oryx:anchors="top left"
         d="m 18.088011,19.61617 c -0.266826,0.174173 -0.494073,0.391637 -0.75033,0.577617 -0.568284,0.02811 -0.878401,-0.03935 -1.2959,-0.365663 0.0069,-0.0262 0.0488,-0.0145 0.05037,-0.04666 0.608314,0.271099 1.381582,-0.110418 1.995856,-0.16529"
         id="path126"
         style="fill:#f0d6b7;fill-opacity:1;fill-rule:evenodd;stroke:none" />
      <path oryx:anchors="top left"
         d="m 16.309959,22.263861 c -0.285145,0.191232 -0.580776,0.377999 -0.833195,0.59942 l 1.237803,0 c -0.12372,-0.209647 -0.256917,-0.41198 -0.404608,-0.59942 z"
         id="path128"
         style="fill:#81b0c4;fill-opacity:1;fill-rule:evenodd;stroke:none" />
      <path oryx:anchors="top left"
         d="M 15.401836,5.6029667 C 14.6153,5.6177184 13.846229,5.7475961 13.20496,5.9835987 12.72826,6.1590096 12.265998,6.31624 11.847273,6.5620396 10.727108,7.2197166 9.5390142,7.6603614 9.206825,8.9836986 8.3885465,9.350261 8.140617,10.396653 8.1818159,11.612158 c 0.00799,0.236916 0.1375386,0.535518 0.09291,0.758267 -0.022623,0.113117 -0.1760471,0.256031 -0.2068001,0.329681 -0.3921436,0.935185 -0.078596,2.164729 0.3746378,2.829265 0.2739889,0.401532 0.7293532,0.75961 1.3277165,0.854174 0.023714,0.358243 0.1102293,0.664929 0.2757339,1.028007 0.104628,0.229607 0.494722,0.642183 0.350661,0.935096 -0.07247,0.14775 -0.7088425,0.469701 -0.9201109,0.596423 -0.7133021,0.427957 -1.2295535,0.688705 -1.8881748,1.162876 -0.4260562,0.306631 -1.094099,0.347379 -0.9890439,1.05498 0.07085,0.477431 0.3420334,1.067736 0.4975191,1.546505 0.017098,0.0525 0.035528,0.104133 0.053948,0.155849 l 0.7912351,0 0.047954,0 5.9882114,0 c 0.540974,-3.83e-4 1.082826,-3.83e-4 1.624429,0 l 1.111925,0 0.479537,0 1.198841,0 0.27873,0 2.241833,0 0.485531,0 0.05095,0 c 0.160472,-0.502298 0.320741,-1.015189 0.479536,-1.546505 0.116379,-0.390063 0.345328,-0.941468 0.293716,-1.345699 -0.04801,-0.379831 -0.64105,-0.780945 -0.953078,-1.081954 -0.173275,-0.16709 -0.981118,-0.780303 -1.028007,-1.010023 -0.04554,-0.222187 0.328916,-0.72541 0.449566,-0.977056 0.173049,-0.360378 0.298172,-0.79994 0.383629,-1.099937 0.635637,-2.234571 0.698964,-5.305121 -0.209797,-7.1420955 C 20.521475,7.9642365 19.561189,7.0022216 18.959397,6.547054 18.072365,5.8761934 16.712731,5.5783796 15.401836,5.6029667 z m 0.104899,0.6233973 c 1.062223,-0.01055 2.245034,0.3638327 3.045056,0.815212 0.668359,0.3771326 1.16019,1.1044923 1.630424,1.7113457 -0.659476,-0.1957636 -1.220243,0.1423384 -1.117919,0.6863365 0.552093,-0.5059925 1.495427,-0.00494 1.774285,0.554464 0.266826,0.5350018 0.264775,1.3267548 0.305704,2.1219488 0.0994,1.928166 -0.352804,3.91714 -1.321722,5.310866 -0.258956,0.372185 -0.474874,0.777744 -0.839189,1.034 -0.877951,0.616523 -2.214136,1.177437 -3.356755,0.794233 -1.51007,-0.506779 -2.196629,-1.512337 -3.027074,-2.664425 0.02249,0.632827 0.468674,1.152241 0.908122,1.636418 0.382575,0.421997 0.843159,0.897281 1.339705,1.093943 -0.414328,-0.09726 -1.050207,-0.129083 -1.222818,0.242765 -0.966432,-0.06421 -1.862521,-0.160121 -2.319757,-0.815212 -0.360255,-0.516449 -0.725951,-1.395628 -0.89014,-2.073995 -0.03346,-0.139316 -0.09198,-0.436493 -0.07792,-0.512504 0.05394,-0.294263 0.577849,-0.424765 0.37164,-0.836192 -0.38046,-0.0036 -0.466021,0.346112 -0.8152115,0.380632 -0.9039372,0.08939 -1.5426125,-1.195228 -1.5015484,-1.972094 0.0347,-0.6606 0.593865,-1.294374 1.3576875,-1.210829 0.5398034,0.05914 0.7224484,0.64766 0.8272004,1.171867 0.311196,0.01664 0.76098,-0.01199 0.908122,-0.254754 -0.02108,-0.592572 -0.294624,-1.068106 -0.275733,-1.612441 0.03558,-1.023002 0.591846,-1.9475449 0.161843,-2.9551432 0.460307,-1.0441415 1.80948,-1.8667059 2.808285,-2.3647141 0.386824,-0.1928384 0.844888,-0.2769299 1.327717,-0.2817277 z m -2.769323,0.5125046 c 0.05223,-0.00291 0.09897,0.035905 0.143861,0.083919 -0.0067,0.1777713 -0.181331,0.1736569 -0.29971,0.2307769 -0.18426,0.2262345 -0.453337,0.3302795 -0.677346,0.5784408 -0.229798,0.2541196 -0.486628,0.937459 -0.791235,1.0130208 -0.152854,0.038006 -0.328556,-0.026638 -0.461553,-0.017983 -0.351912,0.022264 -0.599341,0.2029171 -0.9560762,0.2547538 0.4607002,-1.0071488 1.8969512,-1.8221678 3.0180822,-2.1399314 0.0077,-0.00218 0.01652,-0.00258 0.02398,-0.003 z m -1.711346,2.2927836 c 0.394865,1.0052368 -0.285604,2.1975748 -0.03297,3.2968128 0.07731,0.336541 0.34645,0.860801 -0.08092,0.872157 C 10.923376,12.242836 9.7363228,11.63348 8.8411785,12.196593 8.7812241,11.470214 8.6756288,10.448706 9.1708598,9.9038091 9.6278714,9.4006279 10.259388,9.0897852 11.026066,9.0316522 z m 8.781511,9.4378768 c 0.438413,0.353069 0.703604,0.686389 1.123914,1.063971 0.228145,0.204421 0.673991,0.448666 0.719305,0.779247 0.02541,0.18463 -0.08727,0.637727 -0.128876,0.845183 -0.07677,0.379494 -0.193692,0.80843 -0.332678,1.249792 l -0.275734,0 -0.686336,0 c 0.01561,-0.02762 0.04748,-0.08319 0.06294,-0.110893 -0.08838,-0.20622 -0.305676,-0.292113 -0.368644,-0.521496 0.40738,-0.769107 0.221099,-3.156404 -0.818209,-2.652436 0.145389,-0.213416 0.526547,-0.390928 0.704319,-0.653368 z m -9.14416,0.542475 c 0.09444,-0.03722 0.782239,0.859461 0.884145,0.932099 0.558694,0.39681 1.254074,0.71257 1.903161,1.022012 0.03962,0.297861 0.132214,0.682392 0.293716,1.198841 0.02404,0.07691 0.04791,0.160805 0.07193,0.242766 l -5.8263677,0 -0.047954,0 -0.2367711,0 C 7.5587957,21.976671 7.3947699,21.562213 7.2077575,21.160927 8.2500441,20.3564 9.4160125,19.503941 10.663417,19.012004 z m 8.511772,0.575444 c 0.08896,-0.0041 0.171567,0.01364 0.245762,0.05695 0.226235,0.131782 0.32413,0.883791 0.34167,1.249792 0.01462,0.303595 -0.02917,0.609463 -0.152852,0.770255 -0.635976,-0.01866 -1.211276,-0.09487 -1.714343,-0.236771 0.03418,-0.20622 -0.02741,-0.408925 0.02398,-0.557461 0.140215,-0.100973 0.37248,-0.09916 0.584435,-0.122881 -0.183283,-0.09007 -0.438867,-0.123992 -0.650372,-0.07193 -0.005,-0.143139 -0.06899,-0.232674 -0.107895,-0.344666 0.301698,-0.107682 0.949233,-0.720979 1.429618,-0.743282 z m -1.087949,0.02997 c -0.266826,0.174174 -0.493019,0.389463 -0.749275,0.575444 -0.568285,0.02811 -0.877249,-0.03934 -1.294749,-0.365647 0.0069,-0.0262 0.04638,-0.0128 0.04795,-0.04496 0.608314,0.271099 1.381796,-0.109968 1.99607,-0.164841 z m -5.991208,0.009 c 0.317212,0.220276 0.929755,0.166789 1.39665,0.24876 0.02438,0.149548 -0.0981,0.345995 -0.09591,0.554464 -0.393111,-0.02417 -1.625252,-0.473767 -1.300743,-0.803224 z m 2.139931,0.125879 c 0.03395,-6.72e-4 0.07177,0.0015 0.110893,0.009 0.505025,0.09636 1.092569,0.328835 1.483566,0.542476 0.238941,0.130658 0.374772,0.292804 0.737287,0.32069 -0.0017,0.04812 -0.0011,0.09828 -0.003,0.146858 -0.198573,0.130433 -0.519373,0.127139 -0.737287,0.236771 0.321248,0.01405 0.572421,0.09174 0.791235,0.200806 -0.0048,0.121213 -0.01026,0.241436 -0.01499,0.362649 -0.355212,0.243173 -0.680212,0.601829 -1.093942,0.836192 -0.01021,0.0058 -0.01965,0.01235 -0.02997,0.01798 -0.202622,0.110508 -0.914333,0.394917 -1.129908,0.344666 -0.121966,-0.02832 -0.131071,-0.178023 -0.179826,-0.32069 -0.0041,-0.0122 -0.01042,-0.02919 -0.01499,-0.04196 -0.109687,-0.306942 -0.330635,-0.769305 -0.350661,-1.21083 -0.02491,-0.544574 -0.07768,-1.434181 0.431583,-1.444603 z m 2.943155,0.758267 c 0.523456,-0.0036 0.51687,1.045586 -0.248759,0.80622 -0.05555,-0.316413 -0.120757,-0.404296 -0.09591,-0.680342 0.131856,-0.08792 0.24773,-0.125205 0.344666,-0.125878 z m 0.353658,1.099936 c 0.01432,-7.67e-4 0.02741,-0.0016 0.04196,0 0.266939,0.02834 0.476328,0.395817 0.857171,0.371641 -0.0087,0.141861 -0.01517,0.283491 -0.02098,0.425589 l -1.471578,0 c -0.0927,-0.148533 -0.192951,-0.290321 -0.302707,-0.422592 0.07073,-0.07489 0.134425,-0.157088 0.203803,-0.233774 0.283882,0.118697 0.477523,-0.129848 0.69233,-0.140864 z m 1.570482,0.314696 c 0.361044,-0.0061 0.657778,0.223557 0.827201,0.482534 l -1.228812,0 c 0.008,-0.134104 0.01593,-0.264226 0.02098,-0.389624 0.132063,-0.0618 0.260284,-0.09087 0.380632,-0.09291 z m -2.793299,0.338673 c 0.03692,0.04686 0.07271,0.09526 0.107895,0.143861 l -0.323687,0 c 0.0721,-0.0481 0.144161,-0.09582 0.215792,-0.143861 z"
         id="path130"
         style="fill:#231f20;fill-opacity:1;fill-rule:evenodd;stroke:none" />
      <path oryx:anchors="top left"
         d="m 14.65244,15.972355 c 0.04933,-0.06567 0.320551,-0.165403 0.700045,0.01732 0,0 -0.44977,0.075 -0.41235,0.824879 l -0.187419,-0.03756 c 0,0 -0.193693,-0.67994 -0.100276,-0.804639"
         id="path132"
         style="fill:#f7e4cd;fill-opacity:1;fill-rule:evenodd;stroke:none" />
      <path oryx:anchors="top left"
         d="m 17.938687,22.417677 c 0,0.113803 -0.09232,0.206085 -0.20622,0.206085 -0.113791,0 -0.206107,-0.09228 -0.206107,-0.206085 0,-0.113792 0.09232,-0.20622 0.206107,-0.20622 0.113905,0 0.20622,0.09243 0.20622,0.20622"
         id="path134"
         style="fill:#1d1919;fill-opacity:1;fill-rule:evenodd;stroke:none" />
      <path oryx:anchors="top left"
         d="m 18.763341,19.175507 -1.499309,0.224885 -2.02399,0.224886 -1.31189,0.03744 -1.274289,-0.03744 L 11.6793,19.325393 10.817225,18.388409 10.14257,16.476885 9.9926613,16.064558 9.0931204,15.764786 8.5683733,14.902689 8.1935797,13.66582 8.6059292,12.578837 9.5803567,12.24151 l 0.7870983,0.374883 0.374884,0.824542 0.44977,-0.075 0.149863,-0.18733 -0.149863,-0.862097 -0.03756,-1.086983 0.224885,-1.4991964 -0.0088,-0.8563633 0.683437,-1.0926046 1.199403,-0.8620975 2.098988,-0.8995408 2.323761,0.3373275 2.023967,1.4617542 0.937097,1.4991975 0.599655,1.0869824 0.149887,2.698622 -0.449771,2.323851 -0.824541,2.06141 -0.787098,1.086983"
         id="path4322"
         style="fill:#f0d6b7;fill-opacity:1;fill-rule:evenodd;stroke:none" />
      <path oryx:anchors="top left"
         d="m 10.855232,18.649355 -0.9380936,0.377635 -2.9971028,2.059009 0.1858204,0.599421 0.3986146,1.177861 6.7314924,0 -0.194811,-0.239768 -0.449566,-1.948117 -0.374638,-0.11389 -0.824203,-0.260747 -0.71331,-0.638383 -0.824203,-1.013021 z m 4.384761,4.088048 -0.36265,0.125878 0.296714,0 0.06594,-0.125878 z"
         id="path4324"
         style="fill:#335061;fill-opacity:1;fill-rule:evenodd;stroke:none" />
      <path oryx:anchors="top left"
         d="m 8.6059292,12.578837 0.9744275,-0.337327 0.7870983,0.374883 0.374884,0.824542 0.44977,-0.075 0.112443,-0.449771 L 11.079666,12.05418 11.304552,9.9926576 11.117087,8.8682322 11.791743,8.0811331 13.253497,6.9192642 12.841192,6.3570509 10.779759,7.3690346 9.9176846,8.0436897 9.4304483,9.0931168 8.680816,10.105101 8.4559308,11.304525 8.6059292,12.578837"
         id="path4326"
         style="fill:#6d6b6d;fill-opacity:1;fill-rule:evenodd;stroke:none" />
      <path oryx:anchors="top left"
         d="m 10.14257,9.0556734 c 0,0 0.562213,-1.3867546 2.811065,-2.0614097 2.248852,-0.6746562 0.112442,-0.4873265 0.112442,-0.4873265 l -2.436181,0.9370969 -0.9370967,0.9369843 -0.4122145,0.7496545 0.8619852,-0.075"
         id="path4328"
         style="fill:#dcd9d8;fill-opacity:1;fill-rule:evenodd;stroke:none" />
      <path oryx:anchors="top left"
         d="m 9.0181437,12.316509 c 0,0 -0.7870981,-2.6237355 2.2113863,-2.9985064 L 11.117087,8.8682322 9.0556996,9.3555575 8.4559308,11.304525 8.6059292,12.578837 9.0181437,12.316509"
         id="path4330"
         style="fill:#dcd9d8;fill-opacity:1;fill-rule:evenodd;stroke:none" />
      <path oryx:anchors="top left"
         d="m 10.217546,15.802229 0.490756,-0.475519 c 0,0 0.221501,0.02575 0.258922,0.288078 0.03742,0.262441 0.149863,2.623735 1.761525,3.898159 0.147008,0.116266 -1.199312,-0.187554 -1.199312,-0.187554 l -1.199448,-1.873968"
         id="path4332"
         style="fill:#f7e4cd;fill-opacity:1;fill-rule:evenodd;stroke:none" />
      <path oryx:anchors="top left"
         d="m 17.114258,15.09013 c 0,0 0.08737,-1.13612 0.393324,-1.048752 0.305957,0.08737 0.305957,0.393324 0.305957,0.393324 0,0 -0.743021,0.480693 -0.699281,0.655428"
         id="path4334"
         style="fill:#f7e4cd;fill-opacity:1;fill-rule:evenodd;stroke:none" />
      <path oryx:anchors="top left"
         d="m 20.224983,10.929754 c 0,0 -0.617761,0.130434 -0.674656,0.674656 -0.0569,0.544335 0.674656,0.112442 0.787099,0.075"
         id="path4336"
         style="fill:#f7e4cd;fill-opacity:1;fill-rule:nonzero;stroke:none" />
      <path oryx:anchors="top left"
         d="m 15.689813,10.96731 c 0,0 -0.824654,0.112443 -0.824654,0.6371 0,0.524769 0.937119,0.487326 1.199447,0.262441"
         id="path4338"
         style="fill:#f7e4cd;fill-opacity:1;fill-rule:nonzero;stroke:none" />
      <path oryx:anchors="top left"
         d="m 10.59234,13.403491 c 0,0 -1.4243327,-0.862097 -1.5741963,-0.03744 -0.1499085,0.824542 -0.4873261,1.42431 0.2248852,2.286295 L 8.7557927,15.502457 8.3060223,14.340588 8.1561587,13.216162 l 0.861985,-0.899653 0.9745176,0.075 0.5622127,0.449771 0.03747,0.562212"
         id="path4340"
         style="fill:#f7e4cd;fill-opacity:1;fill-rule:evenodd;stroke:none" />
      <path oryx:anchors="top left"
         d="m 11.266996,11.042197 c 0,0 0.637189,-3.2982787 3.860604,-3.9354904 2.65378,-0.5245457 4.047843,0.1124417 4.572613,0.7120985 0,0 -2.361295,-2.8109527 -4.610169,-1.948968 -2.248852,0.8620974 -3.897935,2.4362945 -3.860514,3.4481655 0.06382,1.7235194 0.03747,1.7241944 0.03747,1.7241944"
         id="path4342"
         style="fill:#f7e4cd;fill-opacity:1;fill-rule:evenodd;stroke:none" />
      <path oryx:anchors="top left"
         d="m 19.962654,8.193576 c 0,0 -1.08687,-0.037443 -1.124426,0.9370969 0,0 -1.13e-4,0.1498863 0.07489,0.2997714 0,0 0.86221,-0.9745391 1.386867,-0.4497704"
         id="path4344"
         style="fill:#f7e4cd;fill-opacity:1;fill-rule:evenodd;stroke:none" />
      <path oryx:anchors="top left"
         d="m 15.20315,9.5319802 c 0,0 -0.187116,-1.4958241 -1.462417,-0.6261931 -0.824564,0.5622133 -0.749543,1.3493109 -0.599679,1.4991979 0.149908,0.149999 0.109148,0.451906 0.223266,0.244675 0.114062,-0.207232 0.07651,-0.881887 0.488855,-1.0692167 0.412305,-0.1874424 1.088186,-0.3968104 1.349975,-0.048463"
         id="path4346"
         style="fill:#f7e4cd;fill-opacity:1;fill-rule:evenodd;stroke:none" />
      <path oryx:anchors="top left"
         d="m 10.591486,18.61339 -3.6714504,2.472609 0.4106031,1.162876 0.1438609,0.614406 1.0429918,0 C 8.3246444,21.910724 8.1548419,21.235855 8.1548419,21.235855 L 11.679435,19.662376 10.591486,18.61339 z"
         id="path4348"
         style="fill:#49728b;fill-opacity:1;fill-rule:evenodd;stroke:none" />
      <path oryx:anchors="top left"
         d="m 19.888499,18.088897 -0.899131,0.899131 0,3.48563 -0.09591,0.389623 2.361717,0 c 0.198514,-0.858392 0.656366,-2.712378 0.656366,-2.712378 l -1.687369,-1.762296 -0.335676,-0.29971 z"
         id="path4350"
         style="fill:#335061;fill-opacity:1;fill-rule:evenodd;stroke:none" />
      <path oryx:anchors="top left"
         d="m 19.175556,18.875735 2.623623,1.948968 0.075,-0.899541 -1.986523,-1.836525 -0.712099,0.787098"
         id="path4352"
         style="fill:#49728b;fill-opacity:1;fill-rule:evenodd;stroke:none" />
      <path oryx:anchors="top left"
         d="m 17.227072,21.460637 -0.863166,0.11389 0.545473,1.288754 0.488528,0 c -0.10106,-0.237268 -0.170835,-0.424336 -0.170835,-0.500516 0,0 0.187125,-0.451115 0.449565,-0.338672 0.262441,0.112442 0.824204,0.4136 0.824204,0.4136 l 0,-0.713311 -1.273769,-0.263745 z"
         id="path4354"
         style="fill:#dcd9d8;fill-opacity:1;fill-rule:evenodd;stroke:none" />
      <path oryx:anchors="top left"
         d="m 13.692203,19.73817 -1.03834,-0.112892 -0.974563,-0.299885 0,0.337328 0.476172,0.525107 1.49922,0.674656"
         id="path4356"
         style="fill:#ffffff;fill-opacity:1;fill-rule:nonzero;stroke:none" />
      <path oryx:anchors="top left"
         d="m 12.016763,19.8505 c 0,0 1.161982,0.487326 1.536775,0.374884 l 0.03729,0.44932 -1.049269,-0.224435 -0.637235,-0.44977 0.112443,-0.149999"
         id="path4358"
         style="fill:#dcd9d8;fill-opacity:1;fill-rule:evenodd;stroke:none" />
      <path oryx:anchors="top left"
         d="m 19.610146,21.664761 c -0.635975,-0.01866 -1.210557,-0.09423 -1.713624,-0.236129 0.03418,-0.20622 -0.0298,-0.408616 0.02159,-0.557153 0.140216,-0.100973 0.375221,-0.0994 0.587176,-0.123125 -0.183282,-0.09007 -0.440776,-0.125711 -0.65228,-0.07365 -0.005,-0.143139 -0.06915,-0.231856 -0.108057,-0.343849 0.357567,-0.127622 1.201674,-0.964308 1.676519,-0.687249 0.226234,0.131783 0.322373,0.884473 0.339913,1.250474 0.01462,0.303595 -0.02755,0.609889 -0.151235,0.770681"
         id="path4360"
         style="fill:#d33833;fill-opacity:1;fill-rule:evenodd;stroke:none" />
      <path oryx:anchors="top left"
         d="m 19.666714,21.787322 -0.05994,-0.0037 c -0.643343,-0.01888 -1.226746,-0.09441 -1.742066,-0.239768 l -0.104899,-0.02997 0.01873,-0.104899 c 0.01408,-0.08496 0.0091,-0.177077 0.0037,-0.273485 -0.0054,-0.09641 -0.01374,-0.198761 0.02248,-0.303457 l 0.0075,-0.02248 -0.07493,0.01873 -0.0037,-0.149855 c -0.0038,-0.109067 -0.05527,-0.175131 -0.101152,-0.307204 l -0.04121,-0.112391 0.112391,-0.04121 c 0.0644,-0.02298 0.186811,-0.09624 0.322189,-0.187319 0.135378,-0.09108 0.287301,-0.197861 0.449565,-0.295964 0.162265,-0.0981 0.332307,-0.185818 0.502015,-0.232275 0.169708,-0.04646 0.35101,-0.05283 0.505761,0.03746 0.09626,0.05607 0.148822,0.14866 0.194812,0.254754 0.04599,0.106094 0.08034,0.229622 0.108645,0.359653 0.05661,0.260061 0.08458,0.544754 0.09366,0.73429 0.01534,0.318525 -0.01556,0.641754 -0.17608,0.850428 l -0.03746,0.0487 z M 19.53559,21.536314 c 0.07199,-0.131811 0.11742,-0.376841 0.104899,-0.636884 -0.0085,-0.176465 -0.03376,-0.45235 -0.08617,-0.69308 -0.0262,-0.120365 -0.06119,-0.231159 -0.09741,-0.314696 -0.03621,-0.08354 -0.08055,-0.136287 -0.0974,-0.146109 -0.08267,-0.04824 -0.185155,-0.05147 -0.318443,-0.01498 -0.133287,0.03649 -0.285512,0.113661 -0.438326,0.206051 -0.152814,0.09239 -0.307523,0.199178 -0.445819,0.292217 -0.0976,0.06566 -0.178422,0.10644 -0.262246,0.149855 0.02171,0.04795 0.03615,0.10673 0.05245,0.172334 0.21216,-0.02452 0.433012,0.0026 0.61066,0.08991 l 0.367145,0.179826 -0.404609,0.04496 c -0.201091,0.02251 -0.389329,0.04442 -0.490776,0.09366 -0.0069,0.04391 -0.0115,0.08929 -0.0075,0.161094 0.0034,0.06016 -0.0015,0.136832 -0.0037,0.209797 0.448865,0.117981 0.957144,0.184995 1.517283,0.206051 z"
         id="path4362"
         style="font-size:medium;font-style:normal;font-variant:normal;font-weight:normal;font-stretch:normal;text-indent:0;text-align:start;text-decoration:none;line-height:normal;letter-spacing:normal;word-spacing:normal;text-transform:none;direction:ltr;block-progression:tb;writing-mode:lr-tb;text-anchor:start;baseline-shift:baseline;color:#000000;fill:#d33833;fill-opacity:1;stroke:none;stroke-width:2;marker:none;visibility:visible;display:inline;overflow:visible;enable-background:accumulate;font-family:Sans;-inkscape-font-specification:Sans" />
      <path oryx:anchors="top left"
         d="m 14.235963,19.752289 c -0.50926,0.0105 -0.456492,0.900029 -0.431582,1.444603 0.02086,0.45989 0.261772,0.947272 0.365646,1.252789 0.04875,0.142667 0.05786,0.292366 0.179826,0.32069 0.215575,0.05025 0.927287,-0.234158 1.129908,-0.344667 0.428542,-0.233666 0.759938,-0.605001 1.123914,-0.854174 0.0047,-0.121213 0.01015,-0.241436 0.01498,-0.362649 -0.218813,-0.10907 -0.469987,-0.186751 -0.791235,-0.200806 0.217914,-0.109632 0.538713,-0.106337 0.737287,-0.236771 0.0019,-0.04857 0.0013,-0.09873 0.003,-0.146858 -0.362516,-0.02789 -0.498347,-0.190032 -0.737288,-0.32069 -0.390996,-0.213641 -0.978541,-0.446113 -1.483566,-0.542476 -0.03912,-0.0075 -0.07694,-0.0097 -0.110892,-0.009 z"
         id="path4364"
         style="fill:#d33833;fill-opacity:1;fill-rule:evenodd;stroke:none" />
      <path oryx:anchors="top left"
         d="m 14.335617,22.840054 c -0.09031,-0.02097 -0.164673,-0.08741 -0.202304,-0.153602 -0.03763,-0.06619 -0.05166,-0.13047 -0.07493,-0.198558 -0.0982,-0.28882 -0.35206,-0.787209 -0.374638,-1.285008 -0.01241,-0.271403 -0.03194,-0.635622 0.01873,-0.947833 0.02534,-0.156106 0.06667,-0.302392 0.149855,-0.419595 0.08319,-0.117203 0.219895,-0.198958 0.382131,-0.202304 l 0.295964,-0.0075 -0.05245,0.05245 c 0.495238,0.10948 1.032762,0.315367 1.408639,0.520747 0.258792,0.141514 0.359968,0.281867 0.689333,0.307203 l 0.116138,0.0075 -0.0037,0.116138 c -0.0015,0.04424 -0.0017,0.09332 -0.0037,0.146108 l -0.0037,0.06369 -0.0487,0.03372 c -0.08868,0.05825 -0.190921,0.07637 -0.288471,0.101152 0.11678,0.0349 0.22979,0.07759 0.329681,0.127377 l 0.06743,0.03372 -0.0037,0.07867 c -0.0049,0.121632 -0.01029,0.24268 -0.01499,0.363398 l 0,0.05994 -0.05245,0.03372 c -0.346153,0.236971 -0.678803,0.611134 -1.131406,0.85792 -0.120684,0.06582 -0.343344,0.152515 -0.576943,0.221037 -0.116799,0.03426 -0.234933,0.06442 -0.34092,0.08242 -0.105988,0.018 -0.196623,0.02803 -0.284725,0.0075 z m 0.05245,-0.236022 c 0.01969,0.0046 0.09889,0.0044 0.191066,-0.01124 0.09217,-0.01565 0.200543,-0.04254 0.310949,-0.07493 0.220812,-0.06477 0.450048,-0.153869 0.531986,-0.198558 0.386079,-0.210513 0.704014,-0.547402 1.063971,-0.805471 0.003,-0.07503 0.0044,-0.150176 0.0075,-0.224783 -0.189772,-0.08582 -0.398275,-0.149179 -0.670602,-0.161094 l -0.460804,-0.01873 0.412101,-0.209797 c 0.130487,-0.06565 0.274112,-0.09109 0.404609,-0.119884 0.08133,-0.01795 0.134889,-0.04378 0.198558,-0.06743 -0.269098,-0.06401 -0.422174,-0.204486 -0.603167,-0.303457 -0.378763,-0.206956 -0.962877,-0.435321 -1.449848,-0.528239 -0.02941,-0.0056 -0.05926,-0.0081 -0.08617,-0.0075 -0.09239,0.0019 -0.141696,0.0316 -0.191065,0.101152 -0.04937,0.06955 -0.08663,0.182782 -0.108645,0.318443 -0.04403,0.271321 -0.02748,0.62596 -0.01499,0.89913 0.01914,0.421981 0.250102,0.895359 0.359653,1.217573 0.02549,0.07458 0.04435,0.133664 0.05994,0.161095 0.0156,0.02743 0.0133,0.02636 0.04496,0.03372 z"
         id="path4366"
         style="font-size:medium;font-style:normal;font-variant:normal;font-weight:normal;font-stretch:normal;text-indent:0;text-align:start;text-decoration:none;line-height:normal;letter-spacing:normal;word-spacing:normal;text-transform:none;direction:ltr;block-progression:tb;writing-mode:lr-tb;text-anchor:start;baseline-shift:baseline;color:#000000;fill:#d33833;fill-opacity:1;stroke:none;stroke-width:2;marker:none;visibility:visible;display:inline;overflow:visible;enable-background:accumulate;font-family:Sans;-inkscape-font-specification:Sans" />
      <path oryx:anchors="top left"
         d="m 16.930414,21.318213 c -0.05555,-0.316413 -0.119751,-0.406704 -0.0949,-0.682751 0.843882,-0.562663 1.002313,0.966444 0.0949,0.682751"
         id="path4368"
         style="fill:#d33833;fill-opacity:1;fill-rule:evenodd;stroke:none" />
      <path oryx:anchors="top left"
         d="m 17.242807,21.461387 c -0.102716,0.01756 -0.220824,0.0099 -0.348413,-0.02997 l -0.07118,-0.01873 -0.01124,-0.07493 c -0.02675,-0.152372 -0.0536,-0.248526 -0.07493,-0.352159 -0.02133,-0.103634 -0.03583,-0.211284 -0.02248,-0.359653 l 0.0075,-0.05994 0.0487,-0.02997 c 0.233264,-0.15553 0.453739,-0.179783 0.618153,-0.09741 0.164413,0.08238 0.250287,0.24976 0.269739,0.419595 0.01945,0.169835 -0.02418,0.35292 -0.157348,0.479536 -0.06658,0.06331 -0.155784,0.106069 -0.2585,0.123631 z m -0.04121,-0.228529 c 0.05901,-0.0096 0.09814,-0.03608 0.131123,-0.06743 0.06597,-0.06272 0.09838,-0.174331 0.08617,-0.280979 -0.01222,-0.106647 -0.06434,-0.195059 -0.138616,-0.232275 -0.06541,-0.03277 -0.171066,-0.02453 -0.322189,0.05994 -0.0022,0.08199 -0.003,0.155843 0.01124,0.224783 0.01403,0.06816 0.03788,0.167982 0.05994,0.273485 0.06356,0.01333 0.12923,0.02946 0.172334,0.02248 z"
         id="path4370"
         style="font-size:medium;font-style:normal;font-variant:normal;font-weight:normal;font-stretch:normal;text-indent:0;text-align:start;text-decoration:none;line-height:normal;letter-spacing:normal;word-spacing:normal;text-transform:none;direction:ltr;block-progression:tb;writing-mode:lr-tb;text-anchor:start;baseline-shift:baseline;color:#000000;fill:#d33833;fill-opacity:1;stroke:none;stroke-width:2;marker:none;visibility:visible;display:inline;overflow:visible;enable-background:accumulate;font-family:Sans;-inkscape-font-specification:Sans" />
      <path oryx:anchors="top left"
         d="m 18.152328,21.574695 c 0,0 -0.262441,-0.374884 -0.075,-0.487326 0.187443,-0.112443 0.374884,1.12e-4 0.487327,-0.18733 0.112443,-0.187441 0,-0.299884 0.03744,-0.524769 0.03744,-0.224885 0.224998,-0.262441 0.412327,-0.299885 0.18733,-0.03744 0.712211,-0.112442 0.787098,0.075 l -0.224884,-0.674656 -0.449771,-0.149886 -1.42431,0.824542 -0.075,0.412327 0,0.824541"
         id="path4372"
         style="fill:#ef3d3a;fill-opacity:1;fill-rule:evenodd;stroke:none" />
      <path oryx:anchors="top left"
         d="m 14.406798,19.551483 c -0.185653,-0.0038 -0.355414,0.02649 -0.479536,0.110893 -0.880606,0.598883 -0.170797,1.984281 0.260748,2.799294 -0.03696,-0.467894 -0.07446,-0.934987 -0.116887,-1.402644 -0.07933,-0.872555 0.20871,-0.722302 0.965067,-0.722302 0.115523,0 0.712654,0.137639 0.75527,0.224782 0.20442,0.4175 -0.343507,0.326541 0.233774,0.64138 0.487326,0.265702 1.350771,-0.161612 1.153884,-0.752272 -0.110193,-0.131333 -0.573982,-0.04263 -0.740284,-0.128876 -0.2928,-0.151797 -0.588314,-0.300765 -0.881148,-0.452562 -0.256125,-0.132886 -0.742451,-0.30924 -1.150888,-0.317693 z m -0.218788,2.913184 c 0.0091,0.115775 0.02106,0.231834 0.02997,0.347664 l 0.131872,-0.04196 c -0.04453,-0.08857 -0.100749,-0.190336 -0.161843,-0.305704 z"
         id="path4374"
         style="fill:#ef3d3a;fill-opacity:1;fill-rule:evenodd;stroke:none" />
      <path oryx:anchors="top left"
         d="m 15.20315,9.5319802 c -1.021563,-0.237928 -1.529174,0.4275067 -1.83883,1.1176798 -0.276496,-0.06702 -0.166471,-0.443024 -0.09663,-0.634626 0.182854,-0.5028431 0.919746,-1.1722148 1.521843,-1.0814734 0.259101,0.039017 0.609731,0.2759349 0.41362,0.5984196"
         id="path4376"
         style="fill:#231f20;fill-opacity:1;fill-rule:evenodd;stroke:none" />
      <path oryx:anchors="top left"
         d="m 20.180568,10.695312 c 0.01608,7.19e-4 0.03238,0.0012 0.04846,0.0019 0.230845,0.479568 0.430656,0.987584 0.721882,1.41093 -0.195088,0.454381 -1.477271,0.856475 -1.457481,0.04059 0.277283,-0.121213 0.755952,-0.02474 1.001751,-0.179571 -0.142127,-0.390063 -0.347222,-0.722106 -0.314614,-1.273862"
         id="path4378"
         style="fill:#231f20;fill-opacity:1;fill-rule:evenodd;stroke:none" />
      <path oryx:anchors="top left"
         d="m 15.726154,10.707793 c 0.219038,0.401532 0.290327,0.823417 0.601681,1.126899 0.140215,0.136618 0.412889,0.303146 0.277733,0.683089 -0.0316,0.08962 -0.262441,0.289427 -0.395686,0.32867 -0.486764,0.143702 -1.620995,0.02969 -1.236891,-0.577168 0.402556,0.01878 0.943641,0.261429 1.244537,-0.03081 -0.231069,-0.369374 -0.643014,-1.100139 -0.491374,-1.530681"
         id="path4380"
         style="fill:#231f20;fill-opacity:1;fill-rule:evenodd;stroke:none" />
      <path oryx:anchors="top left"
         d="m 19.997848,14.788784 c -0.732901,0.470797 -1.550133,0.982749 -2.75102,0.864009 -0.256594,-0.223086 -0.354419,-0.71952 -0.105134,-1.047403 0.129759,0.223086 0.04824,0.63339 0.409853,0.695121 0.681403,0.116603 1.47446,-0.416825 1.964597,-0.603255 0.303933,-0.512401 -0.0262,-0.700855 -0.299997,-1.030649 -0.560526,-0.675667 -1.31243,-1.51314 -1.285106,-2.524674 0.226571,-0.164278 0.246137,0.250748 0.278632,0.326309 0.292689,0.685 1.0293,1.56104 1.566888,2.147316 0.132008,0.144377 0.349359,0.282906 0.373535,0.37837 0.06971,0.27762 -0.18137,0.610225 -0.152248,0.794856"
         id="path4382"
         style="fill:#231f20;fill-opacity:1;fill-rule:evenodd;stroke:none" />
      <path oryx:anchors="top left"
         d="m 10.335836,14.293137 c -0.22972,-0.131108 -0.284401,-0.708613 -0.5540946,-0.72503 -0.3854194,-0.02339 -0.3151429,0.749205 -0.3136024,1.201 -0.265297,-0.240852 -0.3119494,-0.982411 -0.1170528,-1.363254 -0.222119,-0.10907 -0.3213046,0.120313 -0.4445079,0.20116 0.1583416,-1.150288 1.6826917,-0.533541 1.4292577,0.686124"
         id="path4384"
         style="fill:#231f20;fill-opacity:1;fill-rule:evenodd;stroke:none" />
      <path oryx:anchors="top left"
         d="m 20.464485,15.26779 c -0.341151,0.649356 -0.823754,1.364491 -1.824831,1.385293 -0.02035,-0.209706 -0.03598,-0.528818 0.0011,-0.655091 0.765284,-0.07354 1.237768,-0.463039 1.823706,-0.730202"
         id="path4386"
         style="fill:#231f20;fill-opacity:1;fill-rule:evenodd;stroke:none" />
      <path oryx:anchors="top left"
         d="m 15.668426,15.688775 c 0.638494,0.335753 1.811945,0.371847 2.679777,0.346435 0.04655,0.190141 0.04543,0.425033 0.04723,0.65689 -1.115543,0.05566 -2.434495,-0.220387 -2.727003,-1.003325"
         id="path4388"
         style="fill:#231f20;fill-opacity:1;fill-rule:evenodd;stroke:none" />
      <path oryx:anchors="top left"
         d="m 15.547067,16.314855 c 0.441528,1.108572 1.959053,0.980949 3.238762,0.950365 -0.05633,0.143927 -0.178446,0.31394 -0.330243,0.375446 -0.410078,0.166865 -1.541138,0.293475 -2.110435,-0.0089 -0.361053,-0.191939 -0.593023,-0.62563 -0.790843,-0.879863 -0.09553,-0.122787 -0.571219,-0.43639 -0.0072,-0.437064"
         id="path4390"
         style="fill:#231f20;fill-opacity:1;fill-rule:evenodd;stroke:none" />
      <path oryx:anchors="top left"
         d="m 19.109252,21.925188 c -0.122552,9.69e-4 -0.251835,0.02983 -0.386626,0.09291 -0.01063,0.264262 -0.0281,0.552468 -0.05095,0.845183 l 1.022013,0 c 0.08368,-0.144921 0.167499,-0.290272 0.251756,-0.434579 -0.165628,-0.265882 -0.468531,-0.506408 -0.836192,-0.503514 z"
         id="path4392"
         style="fill:#81b0c4;fill-opacity:1;fill-rule:evenodd;stroke:none" />
      <path oryx:anchors="top left"
         d="m 18.088011,19.61617 c -0.266826,0.174173 -0.494073,0.391637 -0.75033,0.577617 -0.568284,0.02811 -0.878401,-0.03935 -1.2959,-0.365663 0.0069,-0.0262 0.0488,-0.0145 0.05037,-0.04666 0.608314,0.271099 1.381582,-0.110418 1.995856,-0.16529"
         id="path4394"
         style="fill:#f0d6b7;fill-opacity:1;fill-rule:evenodd;stroke:none" />
      <path oryx:anchors="top left"
         d="m 16.309959,22.263861 c -0.285145,0.191232 -0.580776,0.377999 -0.833195,0.59942 l 1.237803,0 c -0.12372,-0.209647 -0.256917,-0.41198 -0.404608,-0.59942 z"
         id="path4396"
         style="fill:#81b0c4;fill-opacity:1;fill-rule:evenodd;stroke:none" />
      <path oryx:anchors="top left"
         d="M 15.401836,5.6029667 C 14.6153,5.6177184 13.846229,5.7475961 13.20496,5.9835987 12.72826,6.1590096 12.265998,6.31624 11.847273,6.5620396 10.727108,7.2197166 9.5390142,7.6603614 9.206825,8.9836986 8.3885465,9.350261 8.140617,10.396653 8.1818159,11.612158 c 0.00799,0.236916 0.1375386,0.535518 0.09291,0.758267 -0.022623,0.113117 -0.1760471,0.256031 -0.2068001,0.329681 -0.3921436,0.935185 -0.078596,2.164729 0.3746378,2.829265 0.2739889,0.401532 0.7293532,0.75961 1.3277165,0.854174 0.023714,0.358243 0.1102293,0.664929 0.2757339,1.028007 0.104628,0.229607 0.494722,0.642183 0.350661,0.935096 -0.07247,0.14775 -0.7088425,0.469701 -0.9201109,0.596423 -0.7133021,0.427957 -1.2295535,0.688705 -1.8881748,1.162876 -0.4260562,0.306631 -1.094099,0.347379 -0.9890439,1.05498 0.07085,0.477431 0.3420334,1.067736 0.4975191,1.546505 0.017098,0.0525 0.035528,0.104133 0.053948,0.155849 l 0.7912351,0 0.047954,0 5.9882114,0 c 0.540974,-3.83e-4 1.082826,-3.83e-4 1.624429,0 l 1.111925,0 0.479537,0 1.198841,0 0.27873,0 2.241833,0 0.485531,0 0.05095,0 c 0.160472,-0.502298 0.320741,-1.015189 0.479536,-1.546505 0.116379,-0.390063 0.345328,-0.941468 0.293716,-1.345699 -0.04801,-0.379831 -0.64105,-0.780945 -0.953078,-1.081954 -0.173275,-0.16709 -0.981118,-0.780303 -1.028007,-1.010023 -0.04554,-0.222187 0.328916,-0.72541 0.449566,-0.977056 0.173049,-0.360378 0.298172,-0.79994 0.383629,-1.099937 0.635637,-2.234571 0.698964,-5.305121 -0.209797,-7.1420955 C 20.521475,7.9642365 19.561189,7.0022216 18.959397,6.547054 18.072365,5.8761934 16.712731,5.5783796 15.401836,5.6029667 z m 0.104899,0.6233973 c 1.062223,-0.01055 2.245034,0.3638327 3.045056,0.815212 0.668359,0.3771326 1.16019,1.1044923 1.630424,1.7113457 -0.659476,-0.1957636 -1.220243,0.1423384 -1.117919,0.6863365 0.552093,-0.5059925 1.495427,-0.00494 1.774285,0.554464 0.266826,0.5350018 0.264775,1.3267548 0.305704,2.1219488 0.0994,1.928166 -0.352804,3.91714 -1.321722,5.310866 -0.258956,0.372185 -0.474874,0.777744 -0.839189,1.034 -0.877951,0.616523 -2.214136,1.177437 -3.356755,0.794233 -1.51007,-0.506779 -2.196629,-1.512337 -3.027074,-2.664425 0.02249,0.632827 0.468674,1.152241 0.908122,1.636418 0.382575,0.421997 0.843159,0.897281 1.339705,1.093943 -0.414328,-0.09726 -1.050207,-0.129083 -1.222818,0.242765 -0.966432,-0.06421 -1.862521,-0.160121 -2.319757,-0.815212 -0.360255,-0.516449 -0.725951,-1.395628 -0.89014,-2.073995 -0.03346,-0.139316 -0.09198,-0.436493 -0.07792,-0.512504 0.05394,-0.294263 0.577849,-0.424765 0.37164,-0.836192 -0.38046,-0.0036 -0.466021,0.346112 -0.8152115,0.380632 -0.9039372,0.08939 -1.5426125,-1.195228 -1.5015484,-1.972094 0.0347,-0.6606 0.593865,-1.294374 1.3576875,-1.210829 0.5398034,0.05914 0.7224484,0.64766 0.8272004,1.171867 0.311196,0.01664 0.76098,-0.01199 0.908122,-0.254754 -0.02108,-0.592572 -0.294624,-1.068106 -0.275733,-1.612441 0.03558,-1.023002 0.591846,-1.9475449 0.161843,-2.9551432 0.460307,-1.0441415 1.80948,-1.8667059 2.808285,-2.3647141 0.386824,-0.1928384 0.844888,-0.2769299 1.327717,-0.2817277 z m -2.769323,0.5125046 c 0.05223,-0.00291 0.09897,0.035905 0.143861,0.083919 -0.0067,0.1777713 -0.181331,0.1736569 -0.29971,0.2307769 -0.18426,0.2262345 -0.453337,0.3302795 -0.677346,0.5784408 -0.229798,0.2541196 -0.486628,0.937459 -0.791235,1.0130208 -0.152854,0.038006 -0.328556,-0.026638 -0.461553,-0.017983 -0.351912,0.022264 -0.599341,0.2029171 -0.9560762,0.2547538 0.4607002,-1.0071488 1.8969512,-1.8221678 3.0180822,-2.1399314 0.0077,-0.00218 0.01652,-0.00258 0.02398,-0.003 z m -1.711346,2.2927836 c 0.394865,1.0052368 -0.285604,2.1975748 -0.03297,3.2968128 0.07731,0.336541 0.34645,0.860801 -0.08092,0.872157 C 10.923376,12.242836 9.7363228,11.63348 8.8411785,12.196593 8.7812241,11.470214 8.6756288,10.448706 9.1708598,9.9038091 9.6278714,9.4006279 10.259388,9.0897852 11.026066,9.0316522 z m 8.781511,9.4378768 c 0.438413,0.353069 0.703604,0.686389 1.123914,1.063971 0.228145,0.204421 0.673991,0.448666 0.719305,0.779247 0.02541,0.18463 -0.08727,0.637727 -0.128876,0.845183 -0.07677,0.379494 -0.193692,0.80843 -0.332678,1.249792 l -0.275734,0 -0.686336,0 c 0.01561,-0.02762 0.04748,-0.08319 0.06294,-0.110893 -0.08838,-0.20622 -0.305676,-0.292113 -0.368644,-0.521496 0.40738,-0.769107 0.221099,-3.156404 -0.818209,-2.652436 0.145389,-0.213416 0.526547,-0.390928 0.704319,-0.653368 z m -9.14416,0.542475 c 0.09444,-0.03722 0.782239,0.859461 0.884145,0.932099 0.558694,0.39681 1.254074,0.71257 1.903161,1.022012 0.03962,0.297861 0.132214,0.682392 0.293716,1.198841 0.02404,0.07691 0.04791,0.160805 0.07193,0.242766 l -5.8263677,0 -0.047954,0 -0.2367711,0 C 7.5587957,21.976671 7.3947699,21.562213 7.2077575,21.160927 8.2500441,20.3564 9.4160125,19.503941 10.663417,19.012004 z m 8.511772,0.575444 c 0.08896,-0.0041 0.171567,0.01364 0.245762,0.05695 0.226235,0.131782 0.32413,0.883791 0.34167,1.249792 0.01462,0.303595 -0.02917,0.609463 -0.152852,0.770255 -0.635976,-0.01866 -1.211276,-0.09487 -1.714343,-0.236771 0.03418,-0.20622 -0.02741,-0.408925 0.02398,-0.557461 0.140215,-0.100973 0.37248,-0.09916 0.584435,-0.122881 -0.183283,-0.09007 -0.438867,-0.123992 -0.650372,-0.07193 -0.005,-0.143139 -0.06899,-0.232674 -0.107895,-0.344666 0.301698,-0.107682 0.949233,-0.720979 1.429618,-0.743282 z m -1.087949,0.02997 c -0.266826,0.174174 -0.493019,0.389463 -0.749275,0.575444 -0.568285,0.02811 -0.877249,-0.03934 -1.294749,-0.365647 0.0069,-0.0262 0.04638,-0.0128 0.04795,-0.04496 0.608314,0.271099 1.381796,-0.109968 1.99607,-0.164841 z m -5.991208,0.009 c 0.317212,0.220276 0.929755,0.166789 1.39665,0.24876 0.02438,0.149548 -0.0981,0.345995 -0.09591,0.554464 -0.393111,-0.02417 -1.625252,-0.473767 -1.300743,-0.803224 z m 2.139931,0.125879 c 0.03395,-6.72e-4 0.07177,0.0015 0.110893,0.009 0.505025,0.09636 1.092569,0.328835 1.483566,0.542476 0.238941,0.130658 0.374772,0.292804 0.737287,0.32069 -0.0017,0.04812 -0.0011,0.09828 -0.003,0.146858 -0.198573,0.130433 -0.519373,0.127139 -0.737287,0.236771 0.321248,0.01405 0.572421,0.09174 0.791235,0.200806 -0.0048,0.121213 -0.01026,0.241436 -0.01499,0.362649 -0.355212,0.243173 -0.680212,0.601829 -1.093942,0.836192 -0.01021,0.0058 -0.01965,0.01235 -0.02997,0.01798 -0.202622,0.110508 -0.914333,0.394917 -1.129908,0.344666 -0.121966,-0.02832 -0.131071,-0.178023 -0.179826,-0.32069 -0.0041,-0.0122 -0.01042,-0.02919 -0.01499,-0.04196 -0.109687,-0.306942 -0.330635,-0.769305 -0.350661,-1.21083 -0.02491,-0.544574 -0.07768,-1.434181 0.431583,-1.444603 z m 2.943155,0.758267 c 0.523456,-0.0036 0.51687,1.045586 -0.248759,0.80622 -0.05555,-0.316413 -0.120757,-0.404296 -0.09591,-0.680342 0.131856,-0.08792 0.24773,-0.125205 0.344666,-0.125878 z m 0.353658,1.099936 c 0.01432,-7.67e-4 0.02741,-0.0016 0.04196,0 0.266939,0.02834 0.476328,0.395817 0.857171,0.371641 -0.0087,0.141861 -0.01517,0.283491 -0.02098,0.425589 l -1.471578,0 c -0.0927,-0.148533 -0.192951,-0.290321 -0.302707,-0.422592 0.07073,-0.07489 0.134425,-0.157088 0.203803,-0.233774 0.283882,0.118697 0.477523,-0.129848 0.69233,-0.140864 z m 1.570482,0.314696 c 0.361044,-0.0061 0.657778,0.223557 0.827201,0.482534 l -1.228812,0 c 0.008,-0.134104 0.01593,-0.264226 0.02098,-0.389624 0.132063,-0.0618 0.260284,-0.09087 0.380632,-0.09291 z m -2.793299,0.338673 c 0.03692,0.04686 0.07271,0.09526 0.107895,0.143861 l -0.323687,0 c 0.0721,-0.0481 0.144161,-0.09582 0.215792,-0.143861 z"
         id="path4398"
         style="fill:#231f20;fill-opacity:1;fill-rule:evenodd;stroke:none" />
      <path oryx:anchors="top left"
         d="m 14.65244,15.972355 c 0.04933,-0.06567 0.320551,-0.165403 0.700045,0.01732 0,0 -0.44977,0.075 -0.41235,0.824879 l -0.187419,-0.03756 c 0,0 -0.193693,-0.67994 -0.100276,-0.804639"
         id="path4400"
         style="fill:#f7e4cd;fill-opacity:1;fill-rule:evenodd;stroke:none" />
      <path oryx:anchors="top left"
         d="m 17.938687,22.417677 c 0,0.113803 -0.09232,0.206085 -0.20622,0.206085 -0.113791,0 -0.206107,-0.09228 -0.206107,-0.206085 0,-0.113792 0.09232,-0.20622 0.206107,-0.20622 0.113905,0 0.20622,0.09243 0.20622,0.20622"
         id="path4402"
         style="fill:#1d1919;fill-opacity:1;fill-rule:evenodd;stroke:none" />
    </g>
  </g>
</svg>